<svg width="8" height="14" viewBox="0 0 8 14" fill="none" xmlns="http://www.w3.org/2000/svg">
<path fill-rule="evenodd" clip-rule="evenodd" d="M0.453424 0.535668C0.182936 0.803602 0.181077 1.23797 0.455283 1.5059L4.50981 5.47645L4.58144 5.53762C4.8555 5.74145 5.24723 5.72015 5.49603 5.4737C5.63081 5.34019 5.69959 5.16462 5.69959 4.98996C5.69959 4.81438 5.63081 4.63789 5.49417 4.50438L1.43964 0.532925L1.36801 0.471752C1.09395 0.267918 0.702224 0.289224 0.453424 0.535668ZM0.392385 12.5653C0.183159 12.8342 0.205383 13.2197 0.453331 13.4653C0.724748 13.7332 1.16627 13.7341 1.43954 13.4662L7.54458 7.48568L7.60724 7.41561C7.70223 7.29362 7.75 7.14718 7.75 7.0001C7.75 6.82544 7.68122 6.64987 7.54644 6.51636C7.27502 6.24751 6.8335 6.2466 6.56022 6.51453L0.45519 12.495L0.392385 12.5653Z" fill="#495057"/>
</svg>
