<svg width="24" height="24" viewBox="0 0 24 24" fill="none" xmlns="http://www.w3.org/2000/svg">
<path fill-rule="evenodd" clip-rule="evenodd" d="M7.34492 4.017C10.4388 3.67406 13.5611 3.67406 16.6549 4.017C18.3679 4.209 19.7499 5.558 19.9509 7.277C20.3179 10.415 20.3179 13.585 19.9509 16.723C19.7499 18.442 18.3679 19.791 16.6549 19.983C13.5611 20.326 10.4388 20.326 7.34492 19.983C5.63192 19.791 4.24992 18.442 4.04892 16.723C3.68194 13.5854 3.68194 10.4156 4.04892 7.278C4.15059 6.44287 4.5313 5.66654 5.12935 5.07484C5.7274 4.48314 6.50775 4.11074 7.34392 4.018L7.34492 4.017ZM11.9999 7.007C12.1988 7.007 12.3896 7.08602 12.5302 7.22667C12.6709 7.36732 12.7499 7.55809 12.7499 7.757V11.25H16.2429C16.4418 11.25 16.6326 11.329 16.7732 11.4697C16.9139 11.6103 16.9929 11.8011 16.9929 12C16.9929 12.1989 16.9139 12.3897 16.7732 12.5303C16.6326 12.671 16.4418 12.75 16.2429 12.75H12.7499V16.243C12.7499 16.4419 12.6709 16.6327 12.5302 16.7733C12.3896 16.914 12.1988 16.993 11.9999 16.993C11.801 16.993 11.6102 16.914 11.4696 16.7733C11.3289 16.6327 11.2499 16.4419 11.2499 16.243V12.75H7.75692C7.55801 12.75 7.36724 12.671 7.22659 12.5303C7.08594 12.3897 7.00692 12.1989 7.00692 12C7.00692 11.8011 7.08594 11.6103 7.22659 11.4697C7.36724 11.329 7.55801 11.25 7.75692 11.25H11.2499V7.757C11.2499 7.55809 11.3289 7.36732 11.4696 7.22667C11.6102 7.08602 11.801 7.007 11.9999 7.007Z" fill="#4624C2"/>
</svg>
