<svg width="16" height="16" viewBox="0 0 16 16" fill="none" xmlns="http://www.w3.org/2000/svg">
<path d="M11.3577 0H4.65032C1.73687 0 0 1.73687 0 4.65032V11.3497C0 14.2711 1.73687 16.008 4.65032 16.008H11.3497C14.2631 16.008 16 14.2711 16 11.3577V4.65032C16.008 1.73687 14.2711 0 11.3577 0ZM3.60179 8.46022H5.8189C6.14706 8.46022 6.4192 8.73235 6.4192 9.06051C6.4192 9.38868 6.14706 9.66081 5.8189 9.66081H3.60179C3.27363 9.66081 3.0015 9.38868 3.0015 9.06051C3.0015 8.73235 3.27363 8.46022 3.60179 8.46022ZM8.78038 12.6703H3.60179C3.27363 12.6703 3.0015 12.3982 3.0015 12.07C3.0015 11.7419 3.27363 11.4697 3.60179 11.4697H8.78038C8.93958 11.4697 9.09227 11.533 9.20485 11.6455C9.31743 11.7581 9.38067 11.9108 9.38067 12.07C9.38067 12.2292 9.31743 12.3819 9.20485 12.4945C9.09227 12.6071 8.93958 12.6703 8.78038 12.6703ZM12.4062 12.6703H10.9254C10.5973 12.6703 10.3251 12.3982 10.3251 12.07C10.3251 11.7419 10.5973 11.4697 10.9254 11.4697H12.4062C12.7343 11.4697 13.0065 11.7419 13.0065 12.07C13.0065 12.3982 12.7343 12.6703 12.4062 12.6703ZM12.4062 9.66081H7.97998C7.65181 9.66081 7.37968 9.38868 7.37968 9.06051C7.37968 8.73235 7.65181 8.46022 7.97998 8.46022H12.4062C12.7343 8.46022 13.0065 8.73235 13.0065 9.06051C13.0065 9.38868 12.7343 9.66081 12.4062 9.66081Z" fill="#4624C2"/>
</svg>
