<svg width="14" height="14" viewBox="0 0 14 14" fill="none" xmlns="http://www.w3.org/2000/svg">
<path d="M9.7935 0.333344H4.20683C1.78016 0.333344 0.333496 1.78001 0.333496 4.20668V9.78668C0.333496 12.22 1.78016 13.6667 4.20683 13.6667H9.78683C12.2135 13.6667 13.6602 12.22 13.6602 9.79334V4.20668C13.6668 1.78001 12.2202 0.333344 9.7935 0.333344ZM10.3335 10.6467C9.1935 10.6467 8.12683 10.1533 7.2735 9.24001C6.30683 10.1133 5.04683 10.6467 3.66683 10.6467C3.3935 10.6467 3.16683 10.42 3.16683 10.1467C3.16683 9.87334 3.3935 9.64668 3.66683 9.64668C5.98016 9.64668 7.8935 7.81334 8.14016 5.46668H3.6735C3.40016 5.46668 3.1735 5.24001 3.1735 4.96668C3.1735 4.69334 3.40016 4.47334 3.6735 4.47334H6.50016V3.85334C6.50016 3.58001 6.72683 3.35334 7.00016 3.35334C7.2735 3.35334 7.50016 3.58001 7.50016 3.85334V4.47334H8.62683C8.64016 4.47334 8.6535 4.46668 8.66683 4.46668C8.68016 4.46668 8.6935 4.47334 8.70683 4.47334H10.3268C10.6002 4.47334 10.8268 4.70001 10.8268 4.97334C10.8268 5.24668 10.6002 5.47334 10.3268 5.47334H9.14016C9.04368 6.57822 8.63437 7.63272 7.96016 8.51334C8.62683 9.25334 9.46016 9.65334 10.3335 9.65334C10.6068 9.65334 10.8335 9.88001 10.8335 10.1533C10.8335 10.4267 10.6068 10.6467 10.3335 10.6467Z" fill="#4624C2"/>
</svg>
