<svg width="14" height="14" viewBox="0 0 14 14" fill="none" xmlns="http://www.w3.org/2000/svg">
<path d="M6.36683 8.96665L5.1335 10.2C4.8735 10.46 4.46016 10.46 4.1935 10.2066C4.12016 10.1333 4.04683 10.0666 3.9735 9.99331C3.29934 9.31465 2.67756 8.5859 2.1135 7.81331C1.56683 7.05331 1.12683 6.29331 0.806829 5.53998C0.493496 4.77998 0.333496 4.05331 0.333496 3.35998C0.333496 2.90665 0.413496 2.47331 0.573496 2.07331C0.733496 1.66665 0.986829 1.29331 1.34016 0.95998C1.76683 0.53998 2.2335 0.333313 2.72683 0.333313C2.9135 0.333313 3.10016 0.373313 3.26683 0.453313C3.44016 0.533313 3.5935 0.653313 3.7135 0.826646L5.26016 3.00665C5.38016 3.17331 5.46683 3.32665 5.52683 3.47331C5.58683 3.61331 5.62016 3.75331 5.62016 3.87998C5.62016 4.03998 5.5735 4.19998 5.48016 4.35331C5.3935 4.50665 5.26683 4.66665 5.10683 4.82665L4.60016 5.35331C4.52683 5.42665 4.4935 5.51331 4.4935 5.61998C4.4935 5.67331 4.50016 5.71998 4.5135 5.77331C4.5335 5.82665 4.5535 5.86665 4.56683 5.90665C4.68683 6.12665 4.8935 6.41331 5.18683 6.75998C5.48683 7.10665 5.80683 7.45998 6.1535 7.81331C6.22016 7.87998 6.2935 7.94665 6.36016 8.01331C6.62683 8.27331 6.6335 8.69998 6.36683 8.96665ZM13.6468 11.22C13.6459 11.4716 13.589 11.7198 13.4802 11.9466C13.3668 12.1866 13.2202 12.4133 13.0268 12.6266C12.7002 12.9866 12.3402 13.2466 11.9335 13.4133C11.9268 13.4133 11.9202 13.42 11.9135 13.42C11.5202 13.58 11.0935 13.6666 10.6335 13.6666C9.9535 13.6666 9.22683 13.5066 8.46016 13.18C7.6935 12.8533 6.92683 12.4133 6.16683 11.86C5.90683 11.6666 5.64683 11.4733 5.40016 11.2666L7.58016 9.08665C7.76683 9.22665 7.9335 9.33331 8.0735 9.40665C8.10683 9.41998 8.14683 9.43998 8.1935 9.45998C8.24683 9.47998 8.30016 9.48665 8.36016 9.48665C8.4735 9.48665 8.56016 9.44665 8.6335 9.37331L9.14016 8.87331C9.30683 8.70665 9.46683 8.57998 9.62016 8.49998C9.7735 8.40665 9.92683 8.35998 10.0935 8.35998C10.2202 8.35998 10.3535 8.38665 10.5002 8.44665C10.6468 8.50665 10.8002 8.59331 10.9668 8.70665L13.1735 10.2733C13.3468 10.3933 13.4668 10.5333 13.5402 10.7C13.6068 10.8666 13.6468 11.0333 13.6468 11.22Z" fill="#4624C2"/>
</svg>
