<svg width="14" height="18" viewBox="0 0 14 18" fill="none" xmlns="http://www.w3.org/2000/svg">
<path d="M1.1425 3.3525C0.6025 3.5925 0.25 4.1325 0.25 4.725V8.25C0.25 12.4125 3.13 16.305 7 17.25C10.87 16.305 13.75 12.4125 13.75 8.25V4.725C13.75 4.1325 13.3975 3.5925 12.8575 3.3525L7.6075 1.02C7.2175 0.8475 6.775 0.8475 6.3925 1.02L1.1425 3.3525ZM7 5.25C7.4125 5.25 7.75 5.5875 7.75 6C7.75 6.4125 7.4125 6.75 7 6.75C6.5875 6.75 6.25 6.4125 6.25 6C6.25 5.5875 6.5875 5.25 7 5.25ZM7 8.25C7.4125 8.25 7.75 8.5875 7.75 9V12C7.75 12.4125 7.4125 12.75 7 12.75C6.5875 12.75 6.25 12.4125 6.25 12V9C6.25 8.5875 6.5875 8.25 7 8.25Z" fill="#4624C2"/>
</svg>
