<svg width="20" height="20" viewBox="0 0 20 20" fill="none" xmlns="http://www.w3.org/2000/svg">
<path d="M2.5 4.99999L5 1.66666H15L17.5 4.99999M2.5 4.99999V16.6667C2.5 17.1087 2.67559 17.5326 2.98816 17.8452C3.30072 18.1577 3.72464 18.3333 4.16667 18.3333H15.8333C16.2754 18.3333 16.6993 18.1577 17.0118 17.8452C17.3244 17.5326 17.5 17.1087 17.5 16.6667V4.99999M2.5 4.99999H17.5M13.3333 8.33332C13.3333 9.21738 12.9821 10.0652 12.357 10.6903C11.7319 11.3155 10.8841 11.6667 10 11.6667C9.11594 11.6667 8.2681 11.3155 7.64298 10.6903C7.01786 10.0652 6.66667 9.21738 6.66667 8.33332" stroke="white" stroke-width="1.5" stroke-linecap="round" stroke-linejoin="round"/>
</svg>
