<svg width="18" height="18" viewBox="0 0 18 18" fill="none" xmlns="http://www.w3.org/2000/svg">
<mask id="mask0_166_1225" style="mask-type:luminance" maskUnits="userSpaceOnUse" x="-1" y="-1" width="20" height="20">
<path d="M6.8565 16.1891C5.61602 15.8188 4.49257 15.1335 3.5955 14.2001C3.88413 13.8578 4.06405 13.4371 4.11225 12.992C4.16044 12.5468 4.07472 12.0974 3.86604 11.7012C3.65737 11.305 3.33523 10.9801 2.94086 10.7681C2.54649 10.556 2.09781 10.4665 1.65225 10.5109C1.55074 10.0137 1.49974 9.50747 1.5 9C1.5 8.21625 1.62 7.46025 1.8435 6.75H1.875C2.25741 6.75012 2.63354 6.65278 2.96788 6.46716C3.30221 6.28154 3.58372 6.01376 3.78583 5.68912C3.98793 5.36448 4.10395 4.99369 4.12295 4.61175C4.14194 4.22982 4.06327 3.84934 3.89438 3.50625C4.7736 2.68756 5.8369 2.09244 6.9945 1.77113C7.18289 2.14103 7.46994 2.4516 7.82389 2.66848C8.17784 2.88537 8.58489 3.0001 9 3C9.41511 3.0001 9.82216 2.88537 10.1761 2.66848C10.5301 2.4516 10.8171 2.14103 11.0055 1.77113C12.1631 2.09244 13.2264 2.68756 14.1056 3.50625C13.9355 3.85174 13.8569 4.23512 13.8773 4.61968C13.8978 5.00425 14.0166 5.37713 14.2224 5.70264C14.4282 6.02814 14.7141 6.29537 15.0527 6.47876C15.3914 6.66214 15.7714 6.75554 16.1565 6.75C16.3849 7.47815 16.5007 8.23689 16.5 9C16.5 9.5175 16.4475 10.023 16.3478 10.5113C15.9022 10.4669 15.4535 10.5564 15.0591 10.7685C14.6648 10.9805 14.3426 11.3054 14.134 11.7016C13.9253 12.0978 13.8396 12.5472 13.8878 12.9923C13.936 13.4375 14.1159 13.8582 14.4045 14.2005C13.5074 15.1338 12.3839 15.8189 11.1435 16.1891C10.9978 15.7351 10.7118 15.3391 10.3265 15.0581C9.94131 14.7771 9.47681 14.6257 9 14.6257C8.52319 14.6257 8.05869 14.7771 7.67346 15.0581C7.28823 15.3391 7.00217 15.7351 6.8565 16.1891Z" fill="white" stroke="white" stroke-width="4" stroke-linejoin="round"/>
<path d="M9 11.625C9.34472 11.625 9.68606 11.5571 10.0045 11.4252C10.323 11.2933 10.6124 11.0999 10.8562 10.8562C11.0999 10.6124 11.2933 10.323 11.4252 10.0045C11.5571 9.68606 11.625 9.34472 11.625 9C11.625 8.65528 11.5571 8.31394 11.4252 7.99546C11.2933 7.67698 11.0999 7.3876 10.8562 7.14384C10.6124 6.90009 10.323 6.70673 10.0045 6.57482C9.68606 6.4429 9.34472 6.375 9 6.375C8.30381 6.375 7.63613 6.65156 7.14384 7.14384C6.65156 7.63613 6.375 8.30381 6.375 9C6.375 9.69619 6.65156 10.3639 7.14384 10.8562C7.63613 11.3484 8.30381 11.625 9 11.625Z" fill="black" stroke="black" stroke-width="4" stroke-linejoin="round"/>
</mask>
<g mask="url(#mask0_166_1225)">
<path d="M0 0H18V18H0V0Z" fill="#4624C2"/>
</g>
</svg>
