<svg width="52" height="61" viewBox="0 0 52 61" fill="none" xmlns="http://www.w3.org/2000/svg">
<mask id="path-1-outside-1_3_259" maskUnits="userSpaceOnUse" x="0" y="0" width="52" height="61" fill="black">
<rect fill="white" width="52" height="61"/>
<path fill-rule="evenodd" clip-rule="evenodd" d="M50.5905 25.5413C50.5905 10.6369 38.8128 1 25.7953 1C12.7778 1 1 10.6369 1 25.5413C1 35.0585 8.59355 46.2518 23.7187 59.1509C24.8964 60.1385 26.6631 60.1385 27.8409 59.1509C42.997 46.2518 50.5905 35.0585 50.5905 25.5413Z"/>
</mask>
<path fill-rule="evenodd" clip-rule="evenodd" d="M50.5905 25.5413C50.5905 10.6369 38.8128 1 25.7953 1C12.7778 1 1 10.6369 1 25.5413C1 35.0585 8.59355 46.2518 23.7187 59.1509C24.8964 60.1385 26.6631 60.1385 27.8409 59.1509C42.997 46.2518 50.5905 35.0585 50.5905 25.5413Z" fill="#4624C2"/>
<path d="M23.7187 59.1509L23.0697 59.9118L23.0761 59.9171L23.7187 59.1509ZM27.8409 59.1509L28.4834 59.9172L28.489 59.9124L27.8409 59.1509ZM25.7953 2C38.3254 2 49.5905 11.2519 49.5905 25.5413H51.5905C51.5905 10.022 39.3002 0 25.7953 0V2ZM2 25.5413C2 11.2519 13.2652 2 25.7953 2V0C12.2903 0 0 10.022 0 25.5413H2ZM24.3676 58.39C16.8443 51.974 11.2364 46.017 7.51566 40.5175C3.79301 35.0153 2 30.0319 2 25.5413H0C0 30.5679 2.00376 35.9398 5.85917 41.6382C9.71644 47.3395 15.4679 53.4287 23.0698 59.9118L24.3676 58.39ZM27.1983 58.3847C26.3922 59.0606 25.1673 59.0606 24.3612 58.3847L23.0761 59.9171C24.6256 61.2165 26.934 61.2165 28.4834 59.9171L27.1983 58.3847ZM49.5905 25.5413C49.5905 30.0319 47.7976 35.0151 44.0713 40.5171C40.3468 46.0165 34.7314 51.9734 27.1927 58.3894L28.489 59.9124C36.1065 53.4293 41.8659 47.34 45.7272 41.6386C49.5867 35.94 51.5905 30.568 51.5905 25.5413H49.5905Z" fill="white" mask="url(#path-1-outside-1_3_259)"/>
</svg>
