<svg width="25" height="25" viewBox="0 0 25 25" fill="none" xmlns="http://www.w3.org/2000/svg">
<path fill-rule="evenodd" clip-rule="evenodd" d="M25 12.5C25 19.4037 19.4037 25 12.5 25C5.59627 25 0 19.4037 0 12.5C0 5.59627 5.59627 0 12.5 0C19.4037 0 25 5.59627 25 12.5ZM12.5 22.9358C18.2637 22.9358 22.9358 18.2637 22.9358 12.5C22.9358 6.73631 18.2637 2.06422 12.5 2.06422C6.73631 2.06422 2.06422 6.73631 2.06422 12.5C2.06422 18.2637 6.73631 22.9358 12.5 22.9358ZM12.6564 17.2436C12.2534 17.6466 11.5999 17.6466 11.1968 17.2436L7.18303 13.2298C6.77997 12.8267 6.77997 12.1733 7.18303 11.7702L11.1968 7.75643C11.5999 7.35336 12.2534 7.35336 12.6564 7.75643C13.0595 8.15949 13.0595 8.81299 12.6564 9.21605L10.4046 11.4679H17.0872C17.6572 11.4679 18.1193 11.93 18.1193 12.5C18.1193 13.07 17.6572 13.5321 17.0872 13.5321H10.4046L12.6564 15.7839C13.0595 16.187 13.0595 16.8405 12.6564 17.2436Z" fill="#4624C2"/>
</svg>
